# xmcd
#
# Track frame offsets: 
#        150
#        15818
#        29643
#        46544
#        65582
#        80947
#        97253
#        117801
#        136063
#        153058
#        169929
#        183485
#        198342
#        211140
#        226634
#        244113
#        269588
#        286736
#        307903
#
# Disc length: 4350 seconds
#
# Revision: 0
# Processed by: cddbd v1.5.2PL0 Copyright (c) Steve Scherf et al.
# Submitted via: ExactAudioCopy v0.95b3
#
DISCID=f710fc13
DTITLE=Various Artist - HP200801
DYEAR=2008
DGENRE=Top 40
TTITLE0=Michael Buble - Lost
TTITLE1=Michael McDonald - (Your Love Keeps Lifting Me) Higher
TTITLE2=Jay-Z - I Know [Album Version]
TTITLE3=Pitbull feat. Lil' Jon - The Anthem
TTITLE4=Cheri Dennis - Portrait Of Love [No Rap]
TTITLE5=Kat DeLuna feat. Busta Rhymes - Run The Show
TTITLE6=Yung Joc feat. Bun B and Young Dro - I'm A G [Clean]
TTITLE7=Charlie Wilson feat. T-Pain - Supa Sexxy [Album Version]
TTITLE8=Josh Turner - Another Try [Album Version]
TTITLE9=Trace Adkins - You're Gonna Miss This
TTITLE10=Sarah Johns - He Hates Me
TTITLE11=Snow Patrol - Shut Your Eyes
TTITLE12=White Stripes - Conquest
TTITLE13=Drowning Pool - Enemy
TTITLE14=Matchbox Twenty - How Far We've Come [Ralphi Rosario and Crai
TTITLE14=g J. Rock Royalty Radio Edit]
TTITLE15=Simian Mobile Disco - Hustler [Amended A-Track Remix]
TTITLE16=Michael English - The Only Thing Good In Me [Radio Version]
TTITLE17=David Crowder Band - Never Let Go [Album Version]
TTITLE18=Robbie Seay Band - New Day [Album Version]
EXTD=
EXTT0=
EXTT1=
EXTT2=
EXTT3=
EXTT4=
EXTT5=
EXTT6=
EXTT7=
EXTT8=
EXTT9=
EXTT10=
EXTT11=
EXTT12=
EXTT13=
EXTT14=
EXTT15=
EXTT16=
EXTT17=
EXTT18=
PLAYORDER=
